<?xml version="1.0" standalone="no"?>
<!DOCTYPE svg PUBLIC "-//W3C//DTD SVG 20010904//EN"
 "http://www.w3.org/TR/2001/REC-SVG-20010904/DTD/svg10.dtd">
<svg version="1.0" xmlns="http://www.w3.org/2000/svg"
 width="700.000000pt" height="700.000000pt" viewBox="0 0 700.000000 700.000000"
 preserveAspectRatio="xMidYMid meet">
<metadata>
Created by potrace 1.14, written by Peter Selinger 2001-2017
</metadata>
<g transform="translate(0.000000,700.000000) scale(0.100000,-0.100000)"
fill="#000000" stroke="none">
<path d="M2527 5494 c-1 -1 -36 -5 -77 -9 -563 -49 -1159 -343 -1474 -725
-194 -235 -280 -444 -285 -697 -6 -278 103 -433 347 -493 85 -21 232 -33 232
-19 0 4 -11 32 -24 61 -13 29 -27 69 -30 88 -3 19 -8 49 -11 65 -15 92 -5 304
22 454 48 268 206 530 433 716 102 84 282 178 445 233 340 115 732 98 934 -40
211 -146 291 -393 220 -677 -55 -217 -205 -432 -395 -567 -42 -30 -109 -63
-174 -86 -59 -21 -220 -37 -220 -22 0 5 12 63 26 129 14 66 27 129 30 140 2
11 24 117 50 235 25 118 48 226 50 240 3 14 23 111 45 215 22 105 42 203 45
218 l6 29 -48 -7 c-27 -3 -60 -8 -74 -10 -14 -2 -47 -6 -75 -10 -27 -3 -77
-10 -110 -15 -33 -5 -87 -12 -120 -15 -33 -3 -67 -8 -75 -10 -8 -2 -39 -7 -69
-10 -30 -4 -61 -8 -70 -10 -24 -4 -133 -19 -150 -19 -14 -1 -25 -29 -37 -91
-4 -27 -162 -766 -168 -790 -2 -9 -10 -44 -22 -105 -1 -8 -21 -98 -43 -200
-22 -102 -119 -556 -216 -1010 -97 -454 -183 -856 -191 -895 -9 -38 -18 -81
-20 -95 -3 -14 -14 -63 -24 -110 -10 -47 -22 -101 -25 -120 -3 -19 -8 -42 -10
-51 -5 -14 36 -15 384 -15 214 1 392 4 395 7 5 5 166 737 190 863 5 28 75 354
82 386 3 14 8 36 11 50 2 14 17 84 33 155 16 72 43 195 60 275 17 80 33 154
35 165 3 11 12 56 21 100 9 44 20 83 23 88 18 20 260 28 359 11 266 -45 401
-263 405 -654 3 -261 -27 -435 -108 -645 -68 -174 -145 -275 -248 -324 -76
-36 -103 -42 -188 -41 -120 1 -197 36 -304 139 -29 28 -56 48 -59 43 -11 -18
-40 -110 -52 -167 -7 -34 -12 -104 -10 -160 2 -84 7 -109 29 -155 33 -71 77
-114 147 -150 114 -58 206 -75 390 -74 280 2 492 91 685 288 212 217 349 487
429 847 42 191 51 268 50 444 -1 145 -14 234 -51 345 -93 277 -261 443 -516
509 l-71 18 45 28 c294 185 483 491 494 800 8 239 -71 441 -237 604 -160 158
-417 266 -708 297 -59 6 -357 13 -363 8z"/>
<path d="M4496 4103 c-10 -44 -17 -76 -22 -103 -3 -13 -12 -56 -20 -95 -9 -38
-17 -77 -19 -85 -1 -8 -13 -62 -25 -120 -12 -58 -24 -112 -25 -120 -2 -8 -15
-71 -30 -140 -15 -69 -28 -132 -30 -140 -6 -27 -54 -253 -80 -375 -14 -66 -37
-172 -50 -235 -13 -63 -42 -203 -65 -310 -23 -107 -44 -206 -46 -220 -3 -14
-23 -108 -45 -209 -44 -206 -109 -518 -112 -541 -2 -13 48 -15 390 -15 l392
-1 5 26 c3 14 28 131 55 260 28 129 52 246 55 260 7 37 22 111 50 240 36 169
74 351 81 383 11 57 17 86 45 212 16 72 33 155 39 185 6 30 17 87 26 125 8 39
17 81 20 95 2 14 16 84 31 155 l26 130 52 48 c113 106 234 167 332 167 65 0
81 -20 113 -140 30 -113 48 -156 77 -181 77 -67 298 -43 401 45 43 36 97 120
118 184 64 196 -27 429 -200 509 -50 23 -75 27 -150 29 -191 3 -326 -57 -564
-250 -52 -42 -96 -75 -98 -73 -1 2 6 46 18 98 11 52 26 124 34 162 l13 67
-393 0 -393 0 -6 -27z"/>
</g>
</svg>
